# xmcd
#
# Track frame offsets: 
#        150
#        22451
#        42196
#        67282
#        89920
#        114572
#        136939
#        156750
#        182799
#        208127
#        231679
#
# Disc length: 3488 seconds
#
# Revision: 0
# Processed by: cddbd v1.5.2PL0 Copyright (c) Steve Scherf et al.
# Submitted via: ExactAudioCopy v0.95b4
#
DISCID=b10d9e0b
DTITLE=E K Caldwell - Heat Lightning
DYEAR=1998
DGENRE=Blues
TTITLE0=Wings of Love
TTITLE1=Changes Are Coming
TTITLE2=Catch That Train
TTITLE3=Cloud Dancing
TTITLE4=Better Than Fine
TTITLE5=In These Times
TTITLE6=D'ya Evah Think 'A Me?
TTITLE7=Run For Cover
TTITLE8=Up Against The Wall
TTITLE9=20th Century Observation
TTITLE10=Big Mouth
EXTD=
EXTT0=
EXTT1=
EXTT2=
EXTT3=
EXTT4=
EXTT5=
EXTT6=
EXTT7=
EXTT8=
EXTT9=
EXTT10=
PLAYORDER=
